<svg xmlns="http://www.w3.org/2000/svg" version="1.1" xmlns:xlink="http://www.w3.org/1999/xlink" xmlns:svgjs="http://svgjs.com/svgjs" width="1440" height="560" preserveAspectRatio="none" viewBox="0 0 1440 560"><g mask="url(&quot;#SvgjsMask1062&quot;)" fill="none"><rect width="1440" height="560" x="0" y="0" fill="rgba(0, 115, 135, 1)"></rect><path d="M0,446.185C80.151,426.457,121.489,341.571,188.918,293.962C252.324,249.193,335.449,236.017,383.733,175.245C438.98,105.71,486.473,19.723,476.96,-68.577C467.375,-157.546,397.322,-226.227,333.7,-289.153C273.857,-348.342,206.115,-405.77,122.947,-418.72C43.611,-431.073,-26.595,-374.95,-104.958,-357.454C-190.716,-338.307,-295.243,-371.534,-359.036,-311.106C-422.739,-250.763,-410.609,-147.575,-418.754,-60.208C-426.512,23.013,-432.332,106.004,-405.295,185.092C-376.335,269.808,-335.179,355.95,-259.915,404.435C-184.623,452.939,-86.967,467.591,0,446.185" fill="#004b58"></path><path d="M1440 1012.636C1529.249 1030.269 1627.629 1020.2280000000001 1704.1309999999999 970.996 1780.617 921.774 1829.708 836.212 1851.403 747.8820000000001 1871.246 667.09 1845.005 584.426 1818.441 505.588 1795.6680000000001 438.001 1753.505 382.608 1709.434 326.534 1663.116 267.602 1619.339 207.55399999999997 1554.56 169.84300000000002 1476.541 124.42399999999998 1388.645 64.68299999999999 1301.763 89.207 1214.904 113.72399999999999 1169.645 209.762 1128.519 290.1 1093.938 357.652 1095.541 433.832 1086.757 509.211 1078.2359999999999 582.337 1050.298 657.12 1077.7930000000001 725.414 1105.7 794.729 1176.839 831.957 1235.387 878.384 1300.626 930.117 1358.318 996.498 1440 1012.636" fill="#009bb6"></path></g><defs><mask id="SvgjsMask1062"><rect width="1440" height="560" fill="#ffffff"></rect></mask></defs></svg>